<svg display="none" xmlns="http://www.w3.org/2000/svg">
  <symbol viewBox="0 0 150 150" id="youtube-icon">
    <path fill-rule="evenodd" clip-rule="evenodd" d="M59.3509 44.5735C57.4165 43.4681 55.0399 43.476 53.1129 44.5943C51.186 45.7125 50 47.7721 50 50V100C50 102.228 51.186 104.287 53.1129 105.406C55.0399 106.524 57.4165 106.532 59.3509 105.426L103.101 80.4262C105.048 79.3137 106.25 77.2431 106.25 75C106.25 72.7569 105.048 70.6862 103.101 69.5737L59.3509 44.5735ZM87.4025 75L62.5 89.23V60.7699L87.4025 75Z"/>
    <path fill-rule="evenodd" clip-rule="evenodd" d="M0 75C0 51.5642 0 39.8463 5.96822 31.6317C7.89569 28.9787 10.2287 26.6457 12.8817 24.7182C21.0963 18.75 32.8142 18.75 56.25 18.75H93.75C117.186 18.75 128.904 18.75 137.118 24.7182C139.771 26.6457 142.104 28.9787 144.032 31.6317C150 39.8463 150 51.5642 150 75C150 98.4356 150 110.154 144.032 118.368C142.104 121.021 139.771 123.354 137.118 125.282C128.904 131.25 117.186 131.25 93.75 131.25H56.25C32.8142 131.25 21.0963 131.25 12.8817 125.282C10.2287 123.354 7.89569 121.021 5.96822 118.368C0 110.154 0 98.4356 0 75ZM56.25 31.25H93.75C105.746 31.25 113.739 31.2672 119.796 31.9233C125.618 32.5541 128.15 33.653 129.771 34.8309C131.362 35.9874 132.762 37.3872 133.919 38.979C135.097 40.6003 136.196 43.1321 136.827 48.9543C137.483 55.0104 137.5 63.0037 137.5 75C137.5 86.9962 137.483 94.9894 136.827 101.046C136.196 106.868 135.097 109.4 133.919 111.021C132.762 112.612 131.362 114.012 129.771 115.169C128.15 116.347 125.618 117.446 119.796 118.077C113.739 118.733 105.746 118.75 93.75 118.75H56.25C44.2536 118.75 36.2604 118.733 30.2043 118.077C24.3821 117.446 21.8503 116.347 20.229 115.169C18.6372 114.012 17.2374 112.612 16.0809 111.021C14.903 109.4 13.8041 106.868 13.1733 101.046C12.5172 94.9894 12.5 86.9962 12.5 75C12.5 63.0037 12.5172 55.0104 13.1733 48.9543C13.8041 43.1321 14.903 40.6003 16.0809 38.979C17.2374 37.3872 18.6372 35.9874 20.229 34.8309C21.8503 33.653 24.3821 32.5541 30.2043 31.9233C36.2604 31.2672 44.2536 31.25 56.25 31.25Z"/>
  </symbol>

  <symbol viewBox="0 0 150 150" id="linkedin-icon">
    <path d="M40.625 50C45.8027 50 50 45.8027 50 40.625C50 35.4473 45.8027 31.25 40.625 31.25C35.4473 31.25 31.25 35.4473 31.25 40.625C31.25 45.8027 35.4473 50 40.625 50Z"/>
    <path d="M31.25 62.5C31.25 59.0482 34.0482 56.25 37.5 56.25H43.75C47.2017 56.25 50 59.0482 50 62.5V112.5C50 115.952 47.2017 118.75 43.75 118.75H37.5C34.0482 118.75 31.25 115.952 31.25 112.5V62.5Z"/>
    <path d="M68.75 118.75H75C78.4519 118.75 81.25 115.952 81.25 112.5V84.375C81.25 75 100 68.75 100 81.25V112.502C100 115.954 102.798 118.75 106.25 118.75H112.5C115.952 118.75 118.75 115.952 118.75 112.5V75C118.75 62.5 109.375 56.25 96.875 56.25C84.375 56.25 81.25 65.625 81.25 65.625V62.5C81.25 59.0482 78.4519 56.25 75 56.25H68.75C65.2981 56.25 62.5 59.0482 62.5 62.5V112.5C62.5 115.952 65.2981 118.75 68.75 118.75Z"/>
    <path fill-rule="evenodd" clip-rule="evenodd" d="M125 6.25C135.356 6.25 143.75 14.6447 143.75 25V125C143.75 135.356 135.356 143.75 125 143.75H25C14.6447 143.75 6.25 135.356 6.25 125V25C6.25 14.6447 14.6447 6.25 25 6.25H125ZM125 18.75C128.452 18.75 131.25 21.5483 131.25 25V125C131.25 128.452 128.452 131.25 125 131.25H25C21.5483 131.25 18.75 128.452 18.75 125V25C18.75 21.5483 21.5483 18.75 25 18.75H125Z"/>
  </symbol>
    
  <symbol viewBox="0 0 150 150" id="instagram-icon">
    <path fill-rule="evenodd" clip-rule="evenodd" d="M75 112.5C95.7106 112.5 112.5 95.7106 112.5 75C112.5 54.2893 95.7106 37.5 75 37.5C54.2893 37.5 37.5 54.2893 37.5 75C37.5 95.7106 54.2893 112.5 75 112.5ZM75 100C88.8069 100 100 88.8069 100 75C100 61.1929 88.8069 50 75 50C61.1929 50 50 61.1929 50 75C50 88.8069 61.1929 100 75 100Z"/>
    <path d="M112.5 31.25C109.048 31.25 106.25 34.0482 106.25 37.5C106.25 40.9517 109.048 43.75 112.5 43.75C115.952 43.75 118.75 40.9517 118.75 37.5C118.75 34.0482 115.952 31.25 112.5 31.25Z"/>
    <path fill-rule="evenodd" clip-rule="evenodd" d="M10.3372 26.7254C6.25 34.7471 6.25 45.2481 6.25 66.25V83.75C6.25 104.752 6.25 115.253 10.3372 123.274C13.9325 130.331 19.6693 136.068 26.7254 139.663C34.7471 143.75 45.2481 143.75 66.25 143.75H83.75C104.752 143.75 115.253 143.75 123.274 139.663C130.331 136.068 136.068 130.331 139.663 123.274C143.75 115.253 143.75 104.752 143.75 83.75V66.25C143.75 45.2481 143.75 34.7471 139.663 26.7254C136.068 19.6693 130.331 13.9325 123.274 10.3372C115.253 6.25 104.752 6.25 83.75 6.25H66.25C45.2481 6.25 34.7471 6.25 26.7254 10.3372C19.6693 13.9325 13.9325 19.6693 10.3372 26.7254ZM83.75 18.75H66.25C55.5428 18.75 48.2641 18.7597 42.638 19.2194C37.1578 19.6671 34.3553 20.4787 32.4002 21.4748C27.6962 23.8717 23.8717 27.6962 21.4748 32.4002C20.4787 34.3553 19.6671 37.1578 19.2194 42.638C18.7597 48.2641 18.75 55.5428 18.75 66.25V83.75C18.75 94.4575 18.7597 101.736 19.2194 107.362C19.6671 112.842 20.4787 115.645 21.4748 117.6C23.8717 122.304 27.6962 126.128 32.4002 128.525C34.3553 129.521 37.1578 130.333 42.638 130.781C48.2641 131.24 55.5428 131.25 66.25 131.25H83.75C94.4575 131.25 101.736 131.24 107.362 130.781C112.842 130.333 115.645 129.521 117.6 128.525C122.304 126.128 126.128 122.304 128.525 117.6C129.521 115.645 130.333 112.842 130.781 107.362C131.24 101.736 131.25 94.4575 131.25 83.75V66.25C131.25 55.5428 131.24 48.2641 130.781 42.638C130.333 37.1578 129.521 34.3553 128.525 32.4002C126.128 27.6962 122.304 23.8717 117.6 21.4748C115.645 20.4787 112.842 19.6671 107.362 19.2194C101.736 18.7597 94.4575 18.75 83.75 18.75Z"/>
  </symbol>

  <symbol viewBox="0 0 150 150" id="facebook-icon">
    <path fill-rule="evenodd" clip-rule="evenodd" d="M125 6.25C135.356 6.25 143.75 14.6447 143.75 25V125C143.75 135.356 135.356 143.75 125 143.75H25C14.6447 143.75 6.25 135.356 6.25 125V25C6.25 14.6447 14.6447 6.25 25 6.25H125ZM125 18.75C128.452 18.75 131.25 21.5483 131.25 25V125C131.25 128.452 128.452 131.25 125 131.25H93.75V87.4994H106.726C109.416 87.4994 111.804 85.7781 112.656 83.2256L115.424 74.9194C116.436 71.8838 114.177 68.7494 110.977 68.7494H93.75V56.2495C93.75 53.1245 96.875 49.9995 100 49.9995H112.5C115.952 49.9995 118.75 47.2012 118.75 43.7495V39.4621C118.75 37.4432 117.461 35.6331 115.508 35.1179C107.316 32.9559 100 32.9559 100 32.9559C84.375 32.9559 75 43.7495 75 53.1245V68.7494H62.5C59.0482 68.7494 56.25 71.5475 56.25 74.9994V81.2494C56.25 84.7012 59.0482 87.4994 62.5 87.4994H75V131.25H25C21.5483 131.25 18.75 128.452 18.75 125V25C18.75 21.5483 21.5483 18.75 25 18.75H125Z" />
  </symbol>
</svg>
